<svg width="100%" height="100%" version="1.1" xmlns="http://www.w3.org/2000/svg">

<defs>
  <style>
    .cls-1 {
      fill: #000;
      fill-rule: evenodd;
    }
  </style>
</defs>
<path class=".cls-1" d="M 2079.81 913.566 c -10.0131 0 -18.5546 0.799768 -26.9362 -0.159954 c -16.9871 -1.95143 -33.9741 -1.56754 -50.9932 -2.0794 c -10.9728 -0.287916 -10.6529 -0.287916 -11.5806 -10.9088 c -2.71921 -32.4066 -5.69434 -64.7812 -8.6055 -97.1558 c -2.52727 -28.4397 -4.92657 -56.9115 -7.70976 -85.3192 c -2.52727 -26.0404 -5.56638 -52.0169 -8.31758 -78.0253 c -2.62324 -24.4409 -5.05453 -48.9138 -7.77374 -73.3227 a 12681.1 12681.1 0 0 0 -10.6849 -92.1332 c -3.29504 -27.1281 -6.55809 -54.3202 -10.205 -81.4163 a 20559.3 20559.3 0 0 0 -17.5309 -125.979 c -6.39814 -44.723 -14.0759 -89.2221 -22.1056 -133.657 c -1.43958 -7.96568 -1.24764 -8.2536 6.36615 -9.53323 c 31.6708 -5.40643 63.5015 -10.0131 95.7162 -9.30929 c 3.48699 0.095972 7.00596 0.159954 10.461 0.607823 c 5.66235 0.703795 8.6055 3.455 8.92541 10.0451 c 1.11968 22.9693 2.71921 45.9386 4.41472 68.876 c 2.71921 37.5891 5.66235 75.1782 8.47754 112.735 c 1.79148 24.185 3.32703 48.306 5.1505 72.4269 c 2.91115 38.7727 5.98226 77.5135 8.92541 116.286 c 1.79148 23.7051 3.35902 47.4742 5.18249 71.1793 c 2.78319 34.8059 5.82231 69.5798 8.63749 104.354 c 1.79148 22.1376 3.39101 44.3071 5.27847 66.4447 c 2.78319 32.7905 5.79032 65.5809 8.63749 98.3714 c 2.14338 25.5926 4.09481 51.2491 6.27018 77.6734 Z M 853.67 114.918 c 4.63865 0 11.6446 -0.511851 18.5546 0.127963 c 8.79744 0.799768 10.493 3.07111 11.0368 11.9005 c 2.52727 40.3723 4.89458 80.7765 7.5818 121.181 c 2.94315 43.5713 6.17421 87.0787 9.40527 130.586 c 2.97514 39.9564 5.95027 79.9128 9.14934 119.869 c 3.48699 43.8912 7.35786 87.7185 10.8768 131.61 c 2.65523 33.6222 4.92657 67.2445 7.67777 100.899 c 2.62324 31.2229 5.69434 62.3819 8.50953 93.5728 c 2.3993 26.8402 4.8306 53.7124 7.16592 80.5846 c 0.735786 8.50953 0.127963 9.05337 -9.05337 8.82943 c -24.025 -0.575833 -47.9221 -3.39101 -71.9471 -2.71921 c -5.5024 0.159954 -7.10194 -2.36731 -8.02967 -7.5818 c -1.98342 -11.3567 -1.66352 -22.9053 -2.87916 -34.39 c -3.29504 -30.3592 -5.18249 -60.8463 -7.96568 -91.2695 c -2.49528 -27.64 -5.5024 -55.216 -8.34957 -82.8239 c -2.52727 -25.2407 -5.02254 -50.4813 -7.70976 -75.754 c -2.68722 -24.7928 -5.53439 -49.6176 -8.34957 -74.4424 c -2.59125 -22.8414 -5.11851 -45.6827 -7.86971 -68.5241 c -4.06282 -33.4623 -8.09365 -66.9246 -12.5084 -100.323 c -4.06282 -30.6471 -8.66948 -61.1982 -12.9882 -91.8133 c -5.88629 -41.5879 -12.5084 -83.0799 -19.8342 -124.412 a 1393.96 1393.96 0 0 0 -5.31046 -28.0239 c -0.959721 -4.70263 -0.095972 -7.42184 5.27847 -8.15763 c 14.1399 -1.88745 28.2478 -4.8306 42.4517 -6.2062 c 14.2039 -1.31162 28.4077 -3.96685 45.1069 -2.71921 Z m 1006.08 403.339 c 27.0641 0 27.7039 0.191944 32.0547 24.5369 c 5.34245 30.0393 9.08536 60.3345 12.6363 90.6297 c 3.74291 32.2786 7.51782 64.5572 10.9728 96.8679 c 2.78319 26.0084 5.11851 52.0809 7.74175 78.0893 c 2.7512 27.2561 5.66235 54.4162 8.50953 81.6403 c 1.56754 15.3875 3.03912 30.7751 4.7986 46.1306 c 0.511851 4.44671 -0.831758 6.81402 -5.21449 7.32587 c -9.24531 1.05569 -18.4266 2.27134 -27.64 3.26305 c -16.8911 1.82347 -33.8142 3.61495 -50.7373 5.18249 c -8.73346 0.799768 -9.30929 0.319907 -10.9408 -8.12564 c -14.8437 -76.6177 -29.7194 -153.171 -44.4351 -229.821 c -9.78916 -50.9612 -19.3224 -101.954 -28.9196 -152.916 a 805.526 805.526 0 0 1 -3.58296 -21.0819 c -0.639814 -4.03083 0.44787 -6.62208 5.02254 -7.70976 c 30.4871 -7.13393 61.2942 -12.6363 89.7339 -14.0119 Z m -1137.08 0 c 28.9516 0 28.8236 0.095972 33.3023 26.3603 c 6.90999 40.6602 11.8046 81.5443 16.1873 122.556 c 4.28675 39.7964 8.9574 79.5609 13.1482 119.357 c 2.84717 27.2241 5.08652 54.5122 7.74175 81.7043 c 1.88745 19.3544 4.1268 38.6448 6.17421 57.9672 c 0.255926 2.36731 0.383888 4.73462 0.543842 7.13393 c 0.415879 9.46925 0 10.237 -9.11735 11.1648 c -18.0747 1.88745 -36.1815 3.455 -54.2562 5.24648 c -6.55809 0.639814 -13.0842 1.59953 -19.5783 2.23935 c -8.63749 0.799768 -8.92541 0.767777 -10.6209 -7.96568 c -6.07823 -30.6791 -11.9645 -61.4221 -17.9148 -92.1012 c -14.2679 -73.8985 -28.6957 -147.733 -42.8675 -221.632 c -5.66235 -29.5594 -10.5249 -59.2468 -16.0913 -88.8382 c -1.0237 -5.40643 -0.255926 -7.93369 5.34245 -9.24531 c 30.1992 -7.03795 60.5904 -12.5404 88.0064 -13.9479 Z m 382.129 309.862 v 124.028 c 0 1.18366 -0.127963 2.3993 0.03199 3.58296 c 0.607823 6.01425 -1.59953 8.66948 -7.80573 8.41356 c -8.15763 -0.351898 -16.2513 -0.127963 -24.4089 0.063981 c -17.0191 0.319907 -34.0701 -0.351898 -51.0572 1.59953 c -9.40527 1.08768 -9.21332 0.511851 -10.1411 -9.40527 c -2.78319 -31.2229 -5.82231 -62.4139 -8.66948 -93.6368 c -2.62324 -28.8236 -4.99055 -57.7112 -7.67777 -86.5349 c -2.71921 -29.6554 -5.75833 -59.2148 -8.50953 -88.8382 c -1.88745 -19.7703 -3.55097 -39.5085 -5.21449 -59.2788 c -2.17537 -25.7205 -4.19078 -51.4091 -6.46212 -77.1296 c -0.959721 -10.8448 -0.159954 -12.3804 10.5889 -13.5001 a 531.877 531.877 0 0 1 83.5277 -2.59125 c 6.94198 0.383888 13.852 1.7275 20.57 3.35902 c 8.47754 2.01541 9.40527 3.26305 9.85314 12.1245 c 0.92773 17.8508 1.85546 35.7016 2.33532 53.5844 c 0.543842 19.8662 0.095972 39.7644 0.831758 59.6307 c 1.85546 54.8001 1.56754 109.664 2.20736 164.528 Z m 1134.81 5.63036 v 117.438 c 0 1.98342 -0.063981 3.96685 0.03199 5.98226 c 0.415879 5.1505 -1.98342 6.97397 -6.878 6.94198 c -12.0285 -0.095972 -24.025 0 -36.0215 0.159954 c -13.5641 0.127963 -27.0961 0.063981 -40.6282 1.53555 c -8.92541 1.0237 -8.98939 0.351898 -9.78916 -8.50953 c -3.67893 -40.6602 -7.54981 -81.3204 -11.2607 -122.045 c -3.39101 -37.5251 -6.5261 -75.0822 -9.9811 -112.639 c -3.55097 -38.7407 -7.42184 -77.3855 -10.9088 -116.094 c -1.7275 -19.3864 -3.16708 -38.7727 -4.60666 -58.1591 c -0.575833 -8.44555 0.351898 -9.94911 9.88513 -10.7169 c 16.5712 -1.31162 33.0784 -3.55097 49.7775 -3.26305 c 16.6352 0.319907 33.3023 -0.607823 49.8415 2.55926 c 14.0119 2.68722 14.7157 3.48699 15.5475 18.4586 c 2.3993 44.0512 1.66352 88.2304 3.23106 132.282 c 1.59953 46.8984 0.479861 93.7967 1.75949 146.07 Z M 1831.5 305.135 c 9.78916 0.575833 17.4989 0.095972 25.1767 1.79148 c 4.89458 1.11968 7.35786 3.32703 7.83772 8.57351 c 2.30333 25.2407 4.7986 50.5133 7.32587 75.786 c 2.01541 20.506 4.15879 41.0121 6.23819 61.5181 l 0.191944 1.18366 c 1.66352 12.9242 1.27963 13.2761 -11.2927 13.9799 c -11.1967 0.607823 -22.3615 1.59953 -33.5582 2.27134 c -7.35786 0.44787 -9.69318 1.69551 -10.9088 -9.02138 c -4.19078 -37.813 -9.05337 -75.5301 -13.692 -113.311 a 1185.03 1185.03 0 0 0 -4.28675 -31.7988 c -0.92773 -5.98226 1.40759 -9.2773 7.00596 -9.75716 c 7.35786 -0.671805 14.7157 -0.863749 19.9622 -1.21565 Z m -1133.4 0.159954 c 7.54981 0.415879 15.3235 -0.159954 22.9373 1.59953 c 4.35074 0.991712 6.55809 2.81518 6.97397 7.77374 c 0.92773 11.8366 2.7512 23.6411 3.87087 35.4777 c 3.55097 36.3094 6.90999 72.6509 10.237 108.992 c 0.703795 7.9017 0.543842 8.06166 -6.84601 8.6055 c -13.1162 0.959721 -26.2644 1.91944 -39.4125 2.46328 c -7.64578 0.351898 -8.6055 -0.575833 -9.56522 -8.38156 c -3.32703 -26.7442 -6.46212 -53.5204 -9.66119 -80.2967 c -2.59125 -22.0736 -4.76661 -44.1472 -7.9017 -66.1568 c -0.863749 -6.07823 1.11968 -7.74175 5.98226 -8.73346 c 7.70976 -1.56754 15.4515 -1.05569 23.3852 -1.34361 Z m 399.148 100.003 c 0 23.0013 0.063981 45.9706 -0.031991 69.0039 c 0 10.333 -0.127963 10.397 -10.397 10.269 a 324.29 324.29 0 0 1 -36.9813 -1.91944 c -7.93369 -0.991712 -8.09365 -0.735786 -8.31758 -9.14934 c -0.799768 -28.1198 -1.63153 -56.2397 -2.20736 -84.3595 c -0.415879 -19.0345 -0.639814 -38.005 -1.79148 -57.0394 c -0.607823 -9.82115 -0.063981 -9.91712 9.37328 -10.0451 c 13.916 -0.159954 27.7999 0.479861 41.6199 2.59125 c 8.31758 1.27963 8.70147 1.27963 8.73346 10.493 c 0.063981 23.3852 0.063981 46.7704 0.063981 70.1876 h -0.063981 Z m 1135.38 0.607824 c 0 23.0333 0.063981 46.0346 -0.031991 69.0359 c 0 9.66119 -0.159954 9.72517 -9.85314 9.66119 a 505.325 505.325 0 0 1 -38.1329 -1.79148 c -6.30217 -0.479861 -8.15763 -3.13509 -7.74175 -8.86143 c 0.063981 -0.799768 0 -1.59953 0 -2.3993 c -0.959721 -44.4031 -1.91944 -88.7742 -2.81518 -133.177 c -0.031991 -2.36731 -0.159954 -4.73462 -0.063982 -7.13393 c 0.127963 -8.9574 0.159954 -9.18133 9.14934 -9.11735 c 12.3804 0.063981 24.6648 0.703795 37.0132 1.91944 c 15.0676 1.50356 12.4124 3.35902 12.4764 15.2596 c 0.063981 22.1696 0.031991 44.4031 0 66.6046 Z m -1565.59 54.0003 c 0.287916 12.6363 0.287916 12.6043 -11.8046 15.5475 c -8.22161 2.01541 -16.4432 4.22277 -24.7288 6.04624 c -7.06994 1.59953 -8.31758 0.703795 -9.53323 -6.23819 c -8.44555 -47.0903 -16.8591 -94.2126 -25.2407 -141.335 c -1.69551 -9.75716 -1.24764 -10.365 8.34957 -12.0605 c 11.8046 -2.0794 23.5771 -4.1268 35.3817 -5.95027 c 7.51782 -1.18366 8.47754 -0.767777 9.9811 7.51782 c 2.97514 16.7311 5.79032 33.5263 7.99767 50.3854 c 3.42301 26.6802 6.23819 53.4565 9.30929 80.1687 c 0.255926 1.95143 0.191944 3.96685 0.287916 5.91828 Z m 1064.14 -136.696 c 15.4515 -2.52727 31.031 -5.08652 46.6105 -7.54981 c 5.59837 -0.863749 7.29388 2.65523 8.02967 7.64578 c 2.65523 18.4266 5.98226 36.7253 8.15763 55.184 c 3.19907 26.7442 7.5818 53.3605 8.41356 80.3287 c 0.063981 2.7512 0.031991 5.56638 0.095972 8.31758 c 0.159954 4.28675 -1.98342 6.49411 -5.95027 7.42184 c -10.5569 2.36731 -21.1139 4.73462 -31.6388 7.26189 c -5.05453 1.21565 -6.75004 -0.92773 -7.5818 -5.8543 c -3.16708 -18.7466 -6.81402 -37.3971 -10.0451 -56.0797 c -5.47041 -30.7751 -10.7809 -61.5821 -16.0913 -92.3892 c -0.127963 -1.11968 0 -2.30333 0 -4.28675 Z m -710.641 108.033 c -0.44787 16.3792 0.543842 30.6471 -1.69551 44.9149 c -0.671805 4.51069 -1.98342 7.42184 -6.84601 7.83772 c -10.429 0.863749 -20.8259 1.69551 -31.1909 2.7512 c -5.02254 0.543842 -6.43013 -1.63153 -7.26189 -6.55809 c -2.33532 -14.5558 -1.91944 -29.3035 -3.32703 -43.9232 c -2.65523 -27.608 -3.7749 -55.4079 -5.56638 -83.1118 c -0.44787 -6.75004 -1.11968 -13.4361 -1.66352 -20.1861 c -0.287916 -3.7749 1.21565 -5.88629 5.24648 -6.04624 c 13.5001 -0.543842 26.9362 -3.00713 40.5002 -2.52727 c 7.93369 0.287916 8.6055 0.799768 9.18133 8.79744 c 0.351898 5.53439 0.255926 11.1328 0.383889 16.6991 l 2.23935 81.3524 Z m 1134.9 -15.8674 c 0 19.0665 0.223935 38.1329 -0.031991 57.1994 c -0.159954 9.91712 -1.27963 10.7809 -10.6529 11.6446 c -9.2773 0.863749 -18.4906 1.56754 -27.7359 2.55926 c -5.21449 0.543842 -7.64578 -0.991712 -7.96568 -6.97397 c -1.34361 -25.3366 -3.16708 -50.6733 -4.92657 -75.9779 c -1.3756 -20.9859 -2.94315 -41.9398 -4.41472 -62.8937 c -0.159954 -2.3993 -0.031991 -4.7986 -0.191944 -7.16592 c -0.223935 -4.19078 1.05569 -6.65407 5.75833 -6.81402 c 13.1162 -0.44787 26.1364 -2.97514 39.3486 -2.49527 c 8.06166 0.287916 8.18962 0.415879 8.79744 8.79744 c 1.95143 27.3201 2.14338 54.7041 2.01541 82.1201 Z M 628.296 756.172 c 16.5712 18.2347 17.4029 39.8284 11.9325 62.4139 c -5.5024 22.5854 -18.0428 41.204 -33.2383 57.9032 c -25.4966 27.8959 -56.3036 48.4979 -89.0621 65.9968 c -56.3996 30.1352 -116.19 50.1614 -178.572 61.998 c -44.883 8.47754 -90.0538 15.0036 -135.705 17.4989 c -13.916 0.767777 -27.7999 1.40759 -41.7159 1.31162 c -10.0771 0 -20.1861 0.287916 -30.2312 -0.063981 c -8.54152 -0.319907 -9.78916 -1.79148 -10.493 -10.7169 c -2.59125 -32.0227 -4.7986 -64.0774 -7.64578 -96.1001 c -3.32703 -37.1092 -7.2299 -74.1864 -10.8129 -111.296 c -2.62324 -26.8402 -4.89458 -53.7444 -7.77374 -80.5206 c -3.32703 -31.5428 -7.06994 -63.0217 -10.7169 -94.5645 c -3.32703 -29.1115 -6.5261 -58.2871 -10.0451 -87.4306 c -3.93486 -32.2786 -7.99768 -64.4933 -12.3164 -96.7079 a 8228.97 8228.97 0 0 0 -13.2122 -92.997 a 5984.5 5984.5 0 0 0 -24.3129 -152.628 a 3243.83 3243.83 0 0 0 -23.6731 -123.74 c -1.15166 -5.5024 0.511851 -7.70976 5.34245 -9.72517 C 52.3353 47.6098 98.4659 28.0635 144.724 8.77313 c 8.6055 -3.58296 17.4349 -6.59009 26.5843 -8.28559 c 6.33416 -1.18366 7.96568 0.127963 7.77374 6.49411 c -0.479861 16.2833 0.191944 32.6305 -1.40759 48.8498 a 161.393 161.393 0 0 0 -0.639814 13.0842 c -0.735786 58.383 -1.43958 116.798 0.095972 175.213 c 1.34361 51.1851 4.03083 102.338 7.00596 153.491 c 2.33532 40.3723 5.69434 80.7445 9.14934 121.053 c 3.39101 39.5085 7.51782 78.9531 11.3887 118.462 c 0.735786 7.51782 1.40759 8.22161 9.94911 7.06994 a 381.329 381.329 0 0 1 50.8332 -4.19078 c 52.8806 -0.127963 104.898 7.13393 156.339 19.3224 c 45.0109 10.6849 88.8062 24.9208 130.778 44.819 c 20.794 9.85314 40.6922 21.2418 58.8309 35.7016 c 6.17421 4.86259 11.6766 10.461 16.8911 16.3153 Z m 1126.84 -9.59721 c 20.4741 17.9468 27.9279 39.9244 22.1056 67.1165 c -4.8306 22.4255 -15.7714 41.268 -30.3592 58.1271 c -23.4172 27.0961 -51.8569 47.6981 -82.632 64.9091 c -60.3345 33.7822 -124.604 55.7278 -192.168 68.3961 a 1151.09 1151.09 0 0 1 -111.456 15.5475 c -21.1778 1.82347 -42.4517 4.09481 -66.2208 2.62324 h -27.7679 c -5.40643 0 -8.47754 -1.69551 -8.92541 -8.12564 c -2.04741 -28.0878 -4.41472 -56.1437 -6.94198 -84.1995 c -2.68722 -29.6234 -5.66235 -59.2468 -8.47754 -88.8702 c -2.55926 -27.2241 -4.92657 -54.5122 -7.70976 -81.7362 c -2.55926 -25.6565 -5.5024 -51.2491 -8.28559 -76.8737 c -2.59125 -24.057 -5.08652 -48.114 -7.93369 -72.139 c -3.42301 -29.1115 -7.03795 -58.2231 -10.6529 -87.3346 c -3.39101 -27.1601 -6.75004 -54.2882 -10.365 -81.4163 a 6133.58 6133.58 0 0 0 -12.1565 -87.1427 c -5.69434 -37.6531 -11.8046 -75.1782 -17.8188 -112.767 a 3259.15 3259.15 0 0 0 -29.1115 -158.994 c -0.44787 -2.33532 -0.671805 -4.73462 -1.3756 -7.00596 c -1.66352 -5.11851 -0.063981 -7.83772 4.95856 -9.82115 C 1191.01 47.6418 1238.61 24.4486 1288.23 6.14989 c 6.49411 -2.43129 13.0522 -5.1505 20.0582 -5.8543 c 6.30217 -0.639814 7.9017 0.383888 7.29388 7.10194 c -3.32703 36.4374 -1.40759 73.0668 -3.13509 109.536 c -1.40759 29.7514 -1.24764 59.5987 0.255926 89.382 c 0.351898 7.54981 0.639814 15.1316 0.575832 22.6494 c -0.383888 35.7656 1.50356 71.4992 3.32703 107.201 c 2.33532 47.1863 5.75833 94.2766 9.24531 141.399 c 2.52727 34.0061 5.82231 67.9482 9.02138 101.922 c 1.69551 18.5866 3.51898 37.1412 5.82231 55.6318 c 1.24764 10.205 1.75949 10.301 11.7726 8.9574 c 17.6589 -2.3993 35.3497 -4.35074 53.2005 -4.09481 c 62.6378 0.799768 124.028 10.6849 184.266 27.8639 c 40.7881 11.5806 80.4886 26.0404 117.982 46.2905 a 253.558 253.558 0 0 1 47.2183 32.4386 Z M 308.677 922.811 c 23.1613 -11.0688 135.609 -98.9472 144.534 -113.279 c -54.5761 -23.5132 -109.344 -45.3628 -168.239 -63.2456 l 23.7051 176.525 Z m 1277.2 -107.521 c 2.87916 -3.1031 2.55926 -5.5024 -1.34361 -7.2299 c -7.77374 -3.55097 -15.4835 -7.32587 -23.3532 -10.5569 c -42.0038 -17.179 -84.1995 -33.8142 -127.483 -47.3782 c -3.7749 -1.15166 -7.64578 -3.7749 -12.4764 -1.53555 l 23.3212 173.454 c 3.455 0.767777 4.7986 -0.831758 6.33416 -1.91944 c 39.3166 -28.8556 78.8891 -57.3593 116.638 -88.3903 c 6.36615 -5.18249 12.6683 -10.397 18.3627 -16.4432 Z"></path>

</svg>